<svg id="svg" version="1.1" xmlns="http://www.w3.org/2000/svg" xmlns:xlink="http://www.w3.org/1999/xlink" width="400" height="400" viewBox="0, 0, 400,400"><g id="svgg"><path id="path0" d="M111.000 118.270 C 108.910 118.732,109.039 119.112,111.805 120.639 C 112.242 120.881,112.780 121.422,113.000 121.843 C 113.733 123.243,114.594 124.194,115.676 124.800 C 116.265 125.130,117.164 126.013,117.674 126.762 C 118.183 127.512,118.957 128.322,119.394 128.562 C 120.291 129.057,121.999 130.847,122.000 131.294 C 122.000 131.456,122.738 132.077,123.640 132.674 C 124.542 133.271,125.438 134.174,125.631 134.682 C 125.824 135.189,126.796 136.177,127.791 136.879 C 128.786 137.580,129.600 138.358,129.600 138.607 C 129.600 138.857,130.017 139.452,130.526 139.930 L 131.452 140.800 172.797 140.800 C 216.037 140.800,216.498 140.782,217.033 139.096 C 217.163 138.686,217.704 138.153,218.235 137.911 C 218.766 137.670,219.200 137.354,219.200 137.209 C 219.200 137.065,219.875 136.566,220.700 136.099 C 221.525 135.633,222.864 134.526,223.675 133.640 C 224.486 132.753,225.611 131.912,226.175 131.771 C 226.739 131.629,227.200 131.359,227.200 131.170 C 227.200 130.576,229.997 128.000,230.642 128.000 C 231.376 128.000,232.400 127.052,232.400 126.373 C 232.400 125.790,233.331 125.029,235.133 124.137 C 235.866 123.774,236.611 123.100,236.787 122.639 C 237.178 121.618,238.120 120.807,240.095 119.792 C 243.547 118.017,243.878 118.026,175.800 118.061 C 140.600 118.078,111.440 118.172,111.000 118.270 M280.824 138.171 C 280.556 138.494,279.717 138.963,278.961 139.213 C 278.128 139.488,277.352 140.119,276.993 140.813 C 276.624 141.527,275.648 142.305,274.410 142.873 C 273.054 143.495,272.268 144.152,271.944 144.936 C 271.630 145.694,270.891 146.332,269.775 146.811 C 268.797 147.230,267.780 148.049,267.365 148.751 C 266.971 149.419,266.166 150.166,265.577 150.409 C 264.989 150.653,263.538 151.749,262.354 152.844 C 261.169 153.939,259.352 155.233,258.316 155.718 C 257.280 156.203,256.425 156.809,256.416 157.064 C 256.393 157.723,254.122 159.554,252.971 159.843 C 252.414 159.983,251.642 160.727,251.155 161.594 C 250.546 162.678,249.866 163.248,248.740 163.620 C 247.617 163.990,246.995 164.510,246.548 165.454 C 246.204 166.178,245.574 166.881,245.148 167.017 C 242.630 167.816,242.800 164.818,242.800 208.386 C 242.800 250.202,242.774 249.600,244.553 249.600 C 245.153 249.600,246.575 251.100,246.931 252.108 C 247.069 252.498,247.729 252.926,248.398 253.060 C 249.549 253.290,251.600 255.206,251.600 256.051 C 251.600 256.265,252.275 256.720,253.100 257.060 C 254.931 257.816,255.981 258.710,256.436 259.900 C 256.625 260.395,257.072 260.800,257.428 260.800 C 258.211 260.800,260.005 262.008,262.296 264.077 C 263.229 264.920,264.623 265.910,265.395 266.278 C 266.167 266.646,267.023 267.455,267.297 268.075 C 267.609 268.779,268.293 269.367,269.117 269.639 C 270.614 270.133,272.213 271.580,272.596 272.787 C 272.738 273.234,273.196 273.600,273.613 273.600 C 274.483 273.600,277.200 275.843,277.200 276.561 C 277.200 276.824,277.868 277.281,278.685 277.576 C 279.502 277.872,280.424 278.367,280.734 278.677 C 281.644 279.587,282.295 278.193,282.845 274.161 C 283.169 271.776,283.763 269.662,284.642 267.761 C 285.931 264.970,285.961 264.776,286.385 256.361 C 286.989 244.366,287.747 237.854,289.125 232.800 C 290.804 226.647,290.803 190.166,289.124 184.000 C 287.765 179.008,286.927 172.217,286.581 163.400 C 286.223 154.261,285.863 151.618,284.639 149.115 C 284.007 147.824,283.324 145.349,282.947 142.981 C 282.243 138.575,281.635 137.194,280.824 138.171 M76.099 139.300 C 75.859 139.795,75.552 141.275,75.417 142.589 C 75.259 144.134,74.789 145.617,74.087 146.789 C 72.722 149.067,72.073 152.831,72.019 158.800 C 71.953 165.894,70.909 174.910,69.402 181.400 C 67.847 188.092,67.934 228.321,69.520 236.200 C 69.962 238.400,70.432 240.740,70.563 241.400 C 71.148 244.347,71.977 253.775,71.988 257.600 C 72.002 262.920,72.720 268.156,73.562 269.088 C 74.631 270.270,75.230 271.999,75.473 274.604 C 75.615 276.124,75.994 277.448,76.457 278.039 L 77.209 279.000 78.104 277.954 C 78.597 277.378,79.291 276.568,79.647 276.154 C 80.002 275.739,80.947 274.897,81.747 274.283 C 82.546 273.669,83.200 272.946,83.200 272.678 C 83.200 272.409,83.684 271.832,84.276 271.395 C 84.867 270.958,85.812 270.103,86.376 269.496 C 87.562 268.217,88.574 267.211,90.454 265.444 C 91.195 264.749,92.065 263.779,92.388 263.290 C 92.712 262.800,93.193 262.400,93.458 262.400 C 93.723 262.400,94.358 261.854,94.870 261.187 C 95.758 260.029,96.311 259.458,98.729 257.200 C 99.318 256.650,100.158 255.705,100.595 255.100 C 101.032 254.495,101.586 254.000,101.825 254.000 C 102.317 254.000,104.000 252.319,104.000 251.829 C 104.000 251.653,104.720 250.878,105.600 250.106 L 107.200 248.704 107.200 208.771 C 107.200 167.236,107.195 167.106,105.539 166.581 C 105.133 166.452,104.800 166.197,104.800 166.014 C 104.800 165.831,104.060 164.988,103.156 164.141 C 102.252 163.293,101.127 162.175,100.656 161.656 C 100.185 161.137,99.283 160.237,98.650 159.656 C 96.603 157.775,95.815 156.979,95.000 155.965 C 94.560 155.418,93.695 154.651,93.079 154.262 C 92.462 153.872,91.844 153.249,91.705 152.877 C 91.566 152.505,90.811 151.623,90.026 150.918 C 89.242 150.213,88.420 149.443,88.200 149.206 C 87.516 148.470,84.851 145.823,84.312 145.345 C 84.031 145.095,83.260 144.243,82.600 143.454 C 81.940 142.664,81.188 142.013,80.929 142.009 C 80.488 142.001,79.808 141.254,78.412 139.246 C 77.646 138.145,76.647 138.169,76.099 139.300 M129.840 277.937 C 129.306 278.783,128.341 279.693,127.695 279.961 C 127.033 280.235,126.128 281.145,125.621 282.048 C 125.126 282.929,124.296 283.811,123.777 284.009 C 123.257 284.206,122.355 285.089,121.772 285.971 C 121.189 286.852,120.099 287.935,119.350 288.377 C 118.601 288.819,117.820 289.622,117.615 290.162 C 117.409 290.701,116.557 291.607,115.721 292.175 C 114.884 292.742,113.750 293.866,113.200 294.672 C 112.650 295.478,111.660 296.436,111.000 296.801 C 107.644 298.658,105.460 298.593,175.050 298.701 C 245.893 298.811,243.894 298.871,239.452 296.782 C 238.311 296.246,237.449 295.508,237.135 294.799 C 236.845 294.143,235.872 293.259,234.818 292.693 C 233.818 292.157,232.760 291.232,232.468 290.637 C 232.175 290.043,231.275 289.251,230.468 288.878 C 228.858 288.134,228.415 287.757,227.770 286.583 C 227.534 286.152,226.724 285.487,225.970 285.103 C 225.217 284.720,223.947 283.701,223.149 282.839 C 222.351 281.977,221.145 280.985,220.470 280.636 C 219.794 280.287,218.384 279.191,217.335 278.200 L 215.429 276.400 173.120 276.400 L 130.810 276.400 129.840 277.937 " stroke="none" fill="#640434" fill-rule="evenodd"></path><path id="path1" d="M248.832 73.300 C 248.814 73.685,248.635 74.000,248.433 74.000 C 248.220 74.000,248.046 78.979,248.018 85.882 C 247.991 92.418,247.921 97.813,247.862 97.871 C 247.803 97.930,202.714 98.028,147.663 98.089 C 59.208 98.187,47.527 98.270,47.191 98.800 C 46.872 99.306,46.811 99.309,46.806 98.824 C 46.802 98.404,46.628 98.459,46.170 99.024 C 45.824 99.451,45.663 99.562,45.812 99.270 C 46.034 98.838,45.937 98.833,45.282 99.242 C 44.841 99.517,44.564 99.962,44.667 100.231 C 44.770 100.499,44.659 100.840,44.421 100.987 C 44.182 101.135,44.091 101.423,44.217 101.628 C 44.344 101.833,43.676 102.018,42.724 102.040 C 41.267 102.074,41.155 102.129,42.000 102.400 L 43.000 102.720 41.900 102.760 C 41.295 102.782,40.800 102.991,40.800 103.224 C 40.800 103.457,40.639 103.548,40.442 103.426 C 40.108 103.219,39.415 104.292,39.521 104.852 C 39.547 104.991,39.170 105.441,38.684 105.852 L 37.800 106.600 38.562 105.700 C 38.981 105.205,39.147 104.800,38.930 104.800 C 38.713 104.800,38.298 105.244,38.007 105.786 C 37.717 106.329,37.327 106.678,37.140 106.563 C 36.953 106.447,36.797 106.678,36.794 107.076 C 36.789 107.690,36.729 107.709,36.400 107.200 C 35.973 106.539,35.893 106.910,35.898 109.523 C 35.900 110.685,35.713 110.921,34.365 111.461 C 32.796 112.088,32.212 113.004,32.044 115.100 C 31.995 115.704,31.932 115.717,31.580 115.200 C 31.279 114.758,31.185 115.126,31.221 116.600 C 31.353 121.891,31.219 123.136,30.500 123.324 C 29.972 123.462,30.021 123.519,30.698 123.554 C 32.301 123.636,31.364 127.263,29.707 127.385 C 28.368 127.483,27.898 127.993,28.481 128.712 C 28.870 129.193,28.875 129.278,28.500 129.053 C 28.225 128.888,27.974 128.898,27.942 129.076 C 27.653 130.687,27.297 139.028,27.234 145.700 C 27.212 147.901,27.041 149.200,26.771 149.200 C 26.536 149.200,26.073 149.470,25.743 149.800 C 25.037 150.505,24.225 150.607,24.638 149.938 C 24.822 149.641,24.747 149.585,24.427 149.783 C 24.098 149.986,24.065 150.225,24.327 150.487 C 24.590 150.750,24.522 151.367,24.128 152.310 C 23.801 153.094,23.613 154.155,23.711 154.668 C 23.809 155.180,23.747 155.600,23.572 155.600 C 23.398 155.600,23.178 155.195,23.082 154.700 C 22.987 154.205,22.884 154.709,22.854 155.820 C 22.825 156.931,23.005 158.045,23.257 158.297 C 23.593 158.633,23.601 159.365,23.286 161.077 C 22.683 164.364,22.689 252.607,23.294 255.513 C 23.623 257.098,23.616 257.744,23.267 258.093 C 23.010 258.350,22.825 259.469,22.854 260.580 C 22.884 261.691,22.987 262.192,23.083 261.694 C 23.354 260.286,23.871 260.989,23.745 262.593 C 23.664 263.622,23.768 263.951,24.116 263.755 C 24.481 263.549,24.488 263.604,24.143 263.978 C 23.800 264.350,23.803 264.700,24.154 265.377 C 24.825 266.669,26.000 267.791,26.000 267.140 C 26.000 266.855,26.261 266.995,26.580 267.450 C 27.021 268.079,27.214 270.243,27.384 276.439 C 27.652 286.205,27.697 286.840,28.162 287.562 C 28.428 287.975,28.375 288.047,27.962 287.834 C 27.653 287.675,28.007 288.084,28.748 288.742 C 29.489 289.400,30.344 289.843,30.648 289.726 C 31.300 289.476,31.311 289.600,31.252 296.500 C 31.216 300.697,31.310 301.600,31.785 301.600 C 32.154 301.600,32.333 301.956,32.281 302.587 C 32.237 303.130,32.349 303.568,32.530 303.561 C 32.712 303.553,33.162 303.891,33.530 304.311 C 33.899 304.731,34.425 304.998,34.700 304.904 C 35.253 304.715,35.449 305.127,35.797 307.200 C 36.212 309.681,36.267 309.800,37.001 309.802 C 37.399 309.803,37.772 310.127,37.830 310.522 C 37.964 311.436,38.795 312.450,39.203 312.198 C 39.649 311.923,40.017 313.069,39.750 313.900 C 39.568 314.464,39.603 314.489,39.932 314.026 C 40.214 313.627,40.502 313.573,40.870 313.847 C 41.161 314.064,42.030 314.294,42.800 314.359 C 44.475 314.499,44.315 314.373,44.494 315.703 C 44.574 316.301,45.076 317.198,45.610 317.695 L 46.581 318.600 147.174 318.717 C 202.501 318.782,247.813 318.880,247.869 318.935 C 247.924 318.991,247.991 324.568,248.017 331.329 L 248.065 343.623 258.385 343.587 L 268.705 343.551 268.774 331.288 C 268.812 324.543,268.878 318.990,268.921 318.948 C 268.965 318.906,288.980 318.807,313.400 318.729 C 346.701 318.623,358.010 318.468,358.639 318.112 C 359.288 317.745,359.595 317.746,359.997 318.119 C 360.405 318.496,360.456 318.491,360.233 318.097 C 359.796 317.323,360.960 316.330,361.604 316.926 C 361.907 317.206,362.017 317.220,361.873 316.961 C 361.334 315.993,363.806 314.347,365.911 314.272 C 367.016 314.232,367.853 314.089,367.770 313.954 C 367.574 313.634,369.131 310.413,369.509 310.357 C 369.669 310.333,370.429 310.282,371.197 310.243 C 372.112 310.197,372.636 309.955,372.716 309.542 C 372.842 308.885,374.704 307.788,375.400 307.959 C 375.620 308.013,375.581 307.835,375.314 307.563 C 374.769 307.008,376.190 305.423,376.862 305.838 C 377.059 305.960,377.194 305.911,377.163 305.730 C 376.913 304.291,377.252 303.134,377.857 303.366 C 378.431 303.587,378.443 303.532,377.957 302.932 C 377.649 302.553,377.611 302.373,377.872 302.530 C 378.132 302.686,378.463 302.621,378.608 302.387 C 378.789 302.094,379.079 302.119,379.536 302.467 C 379.901 302.746,380.065 302.814,379.899 302.619 C 379.734 302.424,379.850 301.980,380.158 301.632 C 380.465 301.285,380.804 300.218,380.910 299.262 C 381.092 297.626,382.400 295.451,382.400 296.784 C 382.400 297.167,382.687 297.070,383.326 296.470 C 383.835 295.991,384.448 295.600,384.688 295.600 C 384.935 295.600,385.030 295.234,384.905 294.759 C 384.779 294.277,384.912 293.778,385.217 293.590 C 385.655 293.319,385.657 293.150,385.225 292.630 C 384.928 292.273,384.880 292.000,385.113 292.000 C 385.348 292.000,385.529 290.934,385.537 289.500 C 385.559 285.421,385.588 285.054,385.863 285.330 C 386.008 285.475,386.403 285.370,386.740 285.097 C 387.243 284.690,387.292 284.701,387.015 285.162 C 386.782 285.548,386.824 285.632,387.149 285.432 C 387.409 285.271,387.571 284.838,387.511 284.470 C 387.450 284.101,387.614 283.841,387.876 283.892 C 388.891 284.088,389.091 282.462,389.384 271.638 C 389.536 266.019,389.759 263.285,390.102 262.862 C 390.516 262.350,390.499 262.306,390.000 262.600 C 389.467 262.914,389.467 262.867,390.000 262.177 C 390.828 261.105,391.296 260.812,391.743 261.088 C 391.952 261.218,391.995 261.116,391.838 260.862 C 391.681 260.608,391.754 260.400,392.000 260.400 C 392.246 260.400,392.331 260.211,392.188 259.981 C 392.014 259.698,391.711 259.731,391.264 260.081 C 390.670 260.545,390.658 260.526,391.149 259.900 C 391.451 259.515,391.965 259.200,392.292 259.200 C 392.670 259.200,392.797 258.969,392.641 258.564 C 392.300 257.673,392.799 256.973,393.288 257.657 C 393.562 258.042,393.588 257.967,393.374 257.400 C 393.209 256.960,393.147 255.700,393.237 254.600 C 393.466 251.790,393.400 162.732,393.168 162.000 C 393.063 161.670,392.837 161.175,392.665 160.900 C 392.487 160.614,392.540 160.400,392.790 160.400 C 393.094 160.400,393.105 160.171,392.828 159.653 C 392.608 159.242,392.537 158.796,392.671 158.662 C 392.805 158.529,392.686 158.145,392.408 157.810 C 392.130 157.474,392.036 157.200,392.200 157.200 C 392.364 157.200,392.297 156.958,392.052 156.663 C 391.807 156.368,391.740 155.979,391.903 155.799 C 392.067 155.619,391.944 155.620,391.632 155.801 C 391.207 156.048,391.129 155.961,391.323 155.456 C 391.540 154.891,391.455 154.849,390.800 155.200 C 390.145 155.551,390.060 155.509,390.277 154.944 C 390.452 154.488,390.384 154.363,390.068 154.558 C 389.727 154.769,389.583 153.947,389.539 151.524 C 389.316 139.480,389.247 136.578,389.182 136.400 C 389.141 136.290,389.078 136.020,389.042 135.800 C 388.769 134.121,388.266 132.800,387.902 132.800 C 387.662 132.800,387.586 132.681,387.731 132.536 C 388.072 132.195,386.505 131.088,386.066 131.359 C 385.662 131.609,385.636 131.413,385.549 127.500 C 385.511 125.795,385.347 124.400,385.185 124.400 C 384.931 124.400,384.465 122.680,384.372 121.400 C 384.314 120.605,383.015 119.555,382.316 119.738 C 381.923 119.841,381.500 119.762,381.377 119.562 C 381.254 119.363,381.568 119.179,382.076 119.154 C 382.897 119.112,382.911 119.085,382.200 118.907 C 381.245 118.669,380.817 118.085,380.800 117.000 C 380.784 115.981,380.351 115.300,379.612 115.132 C 378.792 114.946,378.049 114.257,378.272 113.890 C 378.375 113.720,378.240 113.630,377.972 113.690 C 377.704 113.751,377.328 113.226,377.137 112.525 C 376.946 111.824,376.318 110.879,375.741 110.425 C 375.164 109.971,374.813 109.600,374.962 109.600 C 375.110 109.600,374.999 109.348,374.716 109.040 C 374.335 108.627,374.060 108.595,373.664 108.919 C 373.259 109.251,373.161 109.217,373.262 108.778 C 373.335 108.460,373.225 108.168,373.017 108.130 C 372.809 108.091,372.501 107.686,372.333 107.230 C 372.063 106.500,370.917 106.171,369.185 106.324 C 368.996 106.341,368.796 105.261,368.698 103.700 C 368.681 103.425,368.427 103.178,368.133 103.150 C 367.840 103.123,367.420 103.055,367.200 103.000 C 366.980 102.945,366.609 102.878,366.376 102.850 C 366.143 102.822,366.081 102.592,366.239 102.338 C 366.443 102.006,366.123 101.940,365.110 102.105 C 364.273 102.240,363.278 102.118,362.676 101.806 C 362.115 101.515,361.539 101.395,361.395 101.538 C 361.251 101.682,361.193 101.530,361.267 101.200 C 361.340 100.870,361.550 100.490,361.732 100.356 C 361.915 100.223,361.498 100.000,360.806 99.861 C 360.104 99.721,359.658 99.430,359.797 99.205 C 359.935 98.981,359.634 98.773,359.124 98.739 C 357.679 98.644,357.428 98.596,357.000 98.333 C 356.780 98.198,336.896 98.059,312.813 98.024 C 288.731 97.989,268.988 97.922,268.942 97.875 C 268.895 97.828,268.815 92.265,268.763 85.512 C 268.711 78.759,268.518 73.327,268.334 73.440 C 268.151 73.554,268.000 73.435,268.000 73.175 C 268.000 72.841,267.801 72.864,267.323 73.251 C 266.840 73.643,266.734 73.654,266.953 73.291 C 267.197 72.884,265.478 72.788,258.421 72.816 C 253.036 72.837,249.674 72.997,249.816 73.225 C 249.943 73.431,249.872 73.600,249.657 73.600 C 249.442 73.600,249.176 73.375,249.065 73.100 C 248.944 72.801,248.850 72.882,248.832 73.300 M36.555 104.212 C 36.190 104.769,35.964 105.298,36.053 105.387 C 36.142 105.476,36.518 105.020,36.889 104.374 C 37.714 102.936,37.469 102.817,36.555 104.212 M245.183 115.130 C 249.151 115.731,248.638 122.800,244.626 122.800 C 243.966 122.800,243.600 123.021,243.600 123.420 C 243.600 124.871,242.427 126.306,241.026 126.569 C 239.856 126.788,239.497 127.118,238.861 128.556 C 238.188 130.076,237.879 130.336,236.249 130.746 C 235.122 131.030,234.400 131.436,234.400 131.788 C 234.400 132.512,232.543 134.400,231.831 134.400 C 231.538 134.400,231.074 134.670,230.800 135.000 C 230.526 135.330,230.063 135.600,229.772 135.600 C 229.108 135.600,227.427 137.165,227.080 138.106 C 226.788 138.900,225.239 139.600,223.774 139.600 C 222.958 139.600,222.800 139.795,222.800 140.800 C 222.800 143.838,226.979 143.600,173.700 143.599 C 120.256 143.597,123.824 143.800,123.527 140.736 C 123.419 139.620,123.210 139.390,122.102 139.165 C 120.344 138.809,119.730 138.221,119.427 136.601 C 119.207 135.430,118.970 135.193,117.799 134.973 C 116.182 134.670,115.592 134.057,115.235 132.307 C 115.005 131.186,114.759 130.978,113.334 130.696 C 111.825 130.398,111.657 130.233,111.202 128.608 C 110.783 127.110,110.518 126.803,109.454 126.576 C 107.752 126.212,107.327 125.801,107.033 124.235 C 106.814 123.068,106.560 122.837,105.027 122.408 C 103.100 121.868,102.815 121.366,102.805 118.496 C 102.799 116.411,103.699 115.501,106.107 115.160 C 108.463 114.826,242.988 114.797,245.183 115.130 M80.107 132.300 C 80.454 132.685,80.797 133.630,80.869 134.400 C 80.991 135.700,81.107 135.809,82.494 135.924 C 84.204 136.065,85.200 137.157,85.200 138.889 C 85.200 139.837,85.363 140.000,86.311 140.000 C 87.920 140.000,89.200 141.038,89.200 142.343 C 89.200 143.736,89.864 144.400,91.257 144.400 C 92.562 144.400,93.600 145.680,93.600 147.289 C 93.600 148.240,93.762 148.400,94.724 148.400 C 96.321 148.400,97.134 149.160,97.507 151.000 C 97.807 152.480,97.940 152.609,99.285 152.722 C 100.955 152.863,101.594 153.475,101.965 155.293 C 102.196 156.418,102.439 156.622,103.895 156.910 C 105.451 157.218,105.582 157.349,105.890 158.905 C 106.181 160.376,106.376 160.603,107.554 160.844 C 110.428 161.432,110.200 157.333,110.200 208.400 C 110.200 259.461,110.427 255.368,107.558 255.955 C 106.466 256.178,106.180 256.458,105.965 257.511 C 105.591 259.340,104.898 260.000,103.351 260.000 C 102.184 260.000,102.000 260.133,102.000 260.981 C 102.000 263.257,100.848 264.380,98.500 264.395 C 97.813 264.399,97.600 264.632,97.600 265.381 C 97.600 267.419,96.799 268.400,95.136 268.400 C 93.691 268.400,93.600 268.472,93.600 269.618 C 93.600 271.234,92.034 272.800,90.418 272.800 C 89.301 272.800,89.200 272.912,89.200 274.151 C 89.200 275.699,88.540 276.391,86.707 276.765 C 85.579 276.996,85.378 277.238,85.087 278.713 C 84.745 280.442,84.510 280.607,82.000 280.888 C 81.151 280.983,80.966 281.256,80.774 282.693 C 80.471 284.967,80.408 285.001,76.666 284.990 C 70.032 284.971,69.475 284.032,69.271 272.514 C 69.132 264.641,69.067 264.012,68.371 263.791 C 67.259 263.438,66.183 261.682,65.556 259.200 C 64.741 255.976,64.731 161.413,65.544 157.750 C 66.105 155.225,67.426 153.200,68.512 153.200 C 69.047 153.200,69.153 152.038,69.289 144.700 C 69.486 134.019,69.571 133.771,73.600 132.075 C 75.314 131.354,79.381 131.494,80.107 132.300 M285.788 132.655 C 288.796 134.337,289.095 135.433,289.395 145.868 C 289.684 155.921,289.729 156.260,290.801 156.600 C 293.475 157.449,293.582 159.421,293.591 208.271 C 293.601 257.429,293.485 259.440,290.585 260.168 C 289.746 260.379,289.721 260.603,289.450 270.285 C 289.298 275.731,288.999 280.361,288.787 280.573 C 288.574 280.786,288.400 281.227,288.400 281.554 C 288.400 282.291,286.837 284.000,286.164 284.000 C 285.890 284.000,285.607 284.176,285.533 284.392 C 285.384 284.832,281.486 285.664,280.704 285.422 C 280.427 285.337,279.736 285.166,279.169 285.043 C 278.127 284.817,277.200 283.400,277.200 282.034 C 277.200 281.492,276.808 281.253,275.666 281.100 C 273.839 280.855,270.783 279.023,270.520 278.015 C 270.333 277.299,269.675 276.883,267.374 276.022 C 266.559 275.718,265.990 275.129,265.678 274.266 C 265.295 273.205,264.887 272.882,263.439 272.495 C 261.900 272.083,261.605 271.824,261.177 270.511 C 260.606 268.760,260.203 268.415,258.723 268.406 C 257.439 268.399,256.400 267.104,256.400 265.511 C 256.400 264.460,256.302 264.400,254.587 264.400 C 253.345 264.400,252.702 264.211,252.545 263.800 C 252.418 263.470,252.120 263.200,251.883 263.200 C 251.271 263.200,249.600 261.559,249.600 260.957 C 249.600 260.680,249.195 260.336,248.700 260.191 C 246.384 259.515,245.474 258.897,244.765 257.518 C 244.165 256.352,243.695 255.979,242.559 255.766 C 239.865 255.260,240.000 257.774,240.000 208.232 C 240.000 176.402,240.127 163.359,240.444 162.663 C 240.904 161.653,242.321 160.800,243.538 160.800 C 243.970 160.800,244.425 160.287,244.721 159.467 C 245.194 158.159,245.729 157.757,248.262 156.808 C 248.956 156.547,249.610 156.005,249.715 155.602 C 249.983 154.579,253.026 152.747,254.866 152.500 C 256.008 152.347,256.400 152.108,256.400 151.566 C 256.400 150.432,257.254 148.833,257.961 148.645 C 258.312 148.551,259.075 148.369,259.656 148.241 C 260.381 148.080,260.798 147.661,260.987 146.903 C 261.385 145.307,262.358 144.400,263.672 144.400 C 264.556 144.400,264.916 144.147,265.238 143.301 C 265.875 141.624,266.672 140.940,268.620 140.394 C 269.717 140.087,270.400 139.665,270.400 139.295 C 270.400 138.023,274.178 135.600,276.160 135.600 C 276.987 135.600,277.200 135.406,277.200 134.654 C 277.200 131.546,281.861 130.461,285.788 132.655 M222.170 274.200 C 222.503 274.640,222.780 275.495,222.787 276.100 C 222.798 276.998,222.981 277.200,223.781 277.200 C 225.291 277.200,226.795 278.042,227.042 279.025 C 227.312 280.102,228.946 281.589,229.903 281.629 C 231.067 281.678,232.954 282.980,233.800 284.319 C 234.318 285.138,235.123 285.732,236.082 286.003 C 237.878 286.510,238.768 287.340,239.055 288.775 C 239.229 289.644,239.605 289.942,240.998 290.315 C 242.537 290.727,242.788 290.964,243.294 292.489 C 243.809 294.040,244.006 294.219,245.393 294.400 C 247.916 294.730,248.798 299.202,246.745 301.255 C 246.024 301.976,243.755 302.000,176.146 302.000 C 102.767 302.000,103.514 302.018,103.038 300.246 C 102.190 297.085,103.124 294.844,105.474 294.400 C 106.296 294.245,106.661 293.820,107.098 292.507 C 107.575 291.074,107.896 290.743,109.182 290.358 C 110.438 289.982,110.780 289.645,111.146 288.422 C 111.580 286.974,112.553 286.175,114.195 285.916 C 114.633 285.847,115.047 285.433,115.116 284.995 C 115.377 283.337,116.173 282.380,117.664 281.934 C 118.942 281.551,119.227 281.262,119.439 280.134 C 119.720 278.633,119.998 278.378,121.985 277.791 C 123.107 277.460,123.422 277.130,123.642 276.054 C 124.240 273.130,121.389 273.281,174.883 273.344 C 221.065 273.399,221.572 273.409,222.170 274.200 " stroke="none" fill="#fc4484" fill-rule="evenodd"></path><path id="path2" d="M107.091 117.229 C 106.271 117.905,105.600 118.647,105.600 118.879 C 105.600 119.220,111.841 125.762,115.928 129.705 C 117.071 130.807,119.360 133.126,120.367 134.200 C 120.779 134.640,121.720 135.547,122.458 136.216 C 123.196 136.885,124.727 138.415,125.860 139.616 C 129.070 143.021,125.773 142.800,173.432 142.800 C 220.478 142.800,218.926 142.884,220.951 140.229 C 221.511 139.495,222.638 138.547,223.456 138.123 C 224.274 137.698,225.137 137.004,225.372 136.581 C 225.931 135.577,226.850 134.761,228.382 133.912 C 229.065 133.533,229.933 132.669,230.312 131.991 C 230.712 131.273,231.431 130.668,232.033 130.542 C 232.601 130.424,233.843 129.443,234.793 128.363 C 235.743 127.284,236.731 126.400,236.988 126.400 C 237.246 126.400,238.278 125.613,239.282 124.651 C 240.286 123.689,241.983 122.303,243.054 121.570 C 246.368 119.302,246.527 119.004,245.100 117.746 C 243.056 115.944,245.301 116.000,175.272 116.000 L 108.582 116.000 107.091 117.229 M240.840 117.266 C 244.182 118.412,244.260 118.708,241.700 120.538 C 240.435 121.442,238.770 122.834,238.000 123.629 C 237.230 124.425,236.285 125.246,235.900 125.454 C 235.163 125.852,232.156 128.437,229.674 130.807 C 228.863 131.581,227.646 132.606,226.969 133.085 C 226.292 133.564,225.009 134.641,224.119 135.478 C 216.906 142.260,222.540 141.587,172.956 141.594 L 130.513 141.600 128.730 140.031 C 127.750 139.168,122.603 134.112,117.293 128.794 C 107.051 118.538,107.016 118.487,109.351 117.322 C 110.620 116.688,238.996 116.634,240.840 117.266 M280.365 133.713 C 280.016 133.981,279.527 134.582,279.279 135.048 C 279.031 135.514,278.231 136.179,277.501 136.525 C 275.984 137.245,274.791 138.268,274.173 139.379 C 273.939 139.801,273.489 140.273,273.173 140.427 C 272.858 140.581,272.076 140.953,271.435 141.254 C 270.794 141.554,269.955 142.317,269.570 142.948 C 269.185 143.580,268.179 144.416,267.335 144.806 C 266.491 145.195,265.200 146.077,264.467 146.764 C 263.734 147.452,262.082 148.729,260.796 149.603 C 259.509 150.477,258.355 151.508,258.231 151.896 C 258.107 152.283,257.150 153.050,256.105 153.600 C 255.060 154.150,253.844 155.163,253.403 155.850 C 252.961 156.538,252.015 157.314,251.301 157.576 C 250.586 157.837,249.542 158.653,248.981 159.389 C 248.419 160.126,247.382 161.002,246.676 161.337 C 244.535 162.353,242.328 164.500,241.543 166.333 C 240.835 167.984,240.800 169.983,240.800 208.384 C 240.800 252.156,240.725 250.605,242.943 252.521 C 243.414 252.928,244.340 253.743,245.000 254.332 C 245.660 254.921,246.700 255.626,247.311 255.898 C 247.922 256.170,248.541 256.710,248.686 257.097 C 249.017 257.977,249.845 258.656,251.454 259.367 C 252.144 259.672,253.025 260.457,253.412 261.113 C 253.800 261.769,254.945 262.748,255.958 263.290 C 256.971 263.831,257.971 264.646,258.179 265.101 C 258.388 265.555,259.558 266.519,260.779 267.243 C 262.001 267.967,263.810 269.295,264.800 270.194 C 265.790 271.094,267.140 272.052,267.800 272.323 C 268.460 272.595,269.297 273.336,269.660 273.970 C 270.022 274.605,271.012 275.449,271.860 275.847 C 273.518 276.625,273.959 277.001,274.636 278.217 C 274.876 278.648,275.866 279.437,276.836 279.972 C 277.806 280.506,278.764 281.216,278.963 281.550 C 279.163 281.883,279.765 282.562,280.300 283.058 L 281.273 283.959 282.608 283.085 C 285.460 281.215,288.400 272.327,288.400 265.572 C 288.400 264.398,288.598 261.449,288.839 259.018 C 289.223 255.149,289.585 253.455,291.234 247.800 C 292.621 243.046,293.273 199.448,292.228 181.400 C 291.632 171.115,291.235 168.142,290.049 165.102 C 289.525 163.757,288.400 154.348,288.400 151.308 C 288.400 142.039,283.499 131.307,280.365 133.713 M74.980 134.940 C 74.221 135.678,73.600 136.454,73.600 136.665 C 73.600 136.876,73.278 137.398,72.885 137.825 C 71.264 139.584,70.640 142.639,69.786 153.000 C 69.442 157.180,69.007 160.960,68.821 161.400 C 66.394 167.113,65.999 173.689,66.005 208.316 C 66.010 242.176,66.407 249.554,68.485 254.418 C 68.818 255.198,69.211 257.268,69.358 259.018 C 70.732 275.364,70.984 276.664,73.378 279.800 C 75.033 281.967,76.334 283.200,76.967 283.200 C 77.932 283.200,108.126 252.734,108.681 251.200 C 109.416 249.170,109.434 167.030,108.700 165.341 C 108.425 164.707,106.813 162.842,105.118 161.195 C 103.423 159.548,99.733 155.891,96.918 153.068 C 94.103 150.245,90.423 146.555,88.739 144.868 C 87.056 143.181,84.598 140.771,83.277 139.513 C 81.956 138.256,80.207 136.411,79.390 135.413 C 77.613 133.245,76.814 133.159,74.980 134.940 M281.854 135.506 C 282.626 136.006,284.001 138.771,284.656 141.140 C 286.718 148.600,287.070 150.566,287.608 157.600 C 288.043 163.289,288.616 168.171,289.158 170.800 C 289.363 171.790,289.727 173.590,289.968 174.800 C 291.026 180.101,291.570 191.332,291.588 208.200 C 291.610 229.158,291.159 236.259,289.189 246.000 C 288.593 248.944,287.616 257.245,287.608 259.435 C 287.598 261.897,286.656 268.109,285.793 271.400 C 285.447 272.720,284.982 274.520,284.760 275.400 C 283.579 280.073,281.769 282.238,280.315 280.717 C 279.812 280.190,278.680 279.345,277.800 278.840 C 276.920 278.334,275.692 277.308,275.071 276.560 C 274.450 275.812,273.706 275.200,273.417 275.200 C 273.129 275.200,272.275 274.515,271.518 273.678 C 270.762 272.842,269.526 271.727,268.772 271.201 C 268.017 270.675,266.526 269.470,265.457 268.522 C 264.388 267.575,263.263 266.800,262.957 266.800 C 262.651 266.800,262.400 266.632,262.400 266.427 C 262.400 266.222,262.053 265.944,261.629 265.809 C 261.206 265.675,260.147 264.853,259.277 263.982 C 258.406 263.112,257.495 262.400,257.252 262.400 C 257.009 262.400,255.906 261.500,254.800 260.400 C 253.694 259.300,252.620 258.400,252.414 258.400 C 252.207 258.400,251.138 257.500,250.038 256.400 C 248.938 255.300,247.895 254.397,247.719 254.394 C 247.203 254.383,242.932 250.279,242.446 249.326 C 242.127 248.701,242.000 236.963,242.000 208.027 L 242.000 167.601 244.100 165.447 C 245.255 164.263,246.957 162.825,247.883 162.253 C 248.808 161.680,249.750 160.866,249.976 160.444 C 250.202 160.022,251.297 159.117,252.408 158.433 C 253.520 157.749,254.530 156.927,254.653 156.605 C 254.777 156.284,255.715 155.501,256.739 154.865 C 257.762 154.229,259.166 153.160,259.858 152.491 C 260.550 151.821,261.510 151.062,261.990 150.805 C 262.902 150.317,263.725 149.677,265.596 148.000 C 266.210 147.450,267.131 146.730,267.644 146.400 C 268.157 146.070,269.472 144.945,270.567 143.900 C 271.662 142.855,272.784 142.000,273.061 142.000 C 273.568 142.000,275.398 140.362,275.659 139.674 C 275.737 139.470,276.845 138.638,278.123 137.825 C 279.400 137.012,280.545 136.088,280.666 135.773 C 280.911 135.134,281.184 135.073,281.854 135.506 M92.366 150.834 C 104.964 163.442,107.659 166.332,108.001 167.604 C 108.277 168.628,108.379 182.553,108.308 209.302 L 108.200 249.463 107.111 250.891 C 105.126 253.493,77.688 280.800,77.059 280.800 C 76.303 280.800,74.707 278.696,74.024 276.800 C 73.746 276.030,73.370 275.040,73.188 274.600 C 72.102 271.983,71.371 267.756,70.801 260.800 C 70.376 255.619,69.932 252.109,69.159 247.800 C 67.999 241.341,67.603 236.891,67.165 225.400 C 66.666 212.327,66.856 194.132,67.619 182.000 C 68.004 175.873,68.129 174.855,69.372 167.800 C 70.013 164.164,70.597 159.101,71.010 153.600 C 71.406 148.324,73.525 139.833,74.842 138.243 C 75.044 137.999,75.580 137.305,76.033 136.700 C 76.487 136.095,76.922 135.600,77.001 135.600 C 77.080 135.600,83.994 142.455,92.366 150.834 M128.400 275.186 C 127.233 275.811,125.582 277.422,118.810 284.542 C 118.292 285.086,114.134 289.237,113.601 289.742 C 104.648 298.218,104.380 298.813,108.687 300.651 C 110.491 301.421,239.687 301.462,242.243 300.694 C 246.609 299.382,246.880 298.027,243.284 295.502 C 241.797 294.459,240.010 292.999,239.312 292.260 C 238.614 291.520,237.528 290.702,236.898 290.441 C 236.268 290.180,235.436 289.431,235.050 288.776 C 234.663 288.122,233.459 287.137,232.373 286.587 C 231.288 286.037,230.400 285.329,230.400 285.014 C 230.400 284.421,228.599 282.956,226.730 282.028 C 226.142 281.736,225.559 281.092,225.435 280.596 C 225.309 280.097,224.613 279.413,223.872 279.061 C 222.520 278.419,220.400 276.544,220.400 275.989 C 220.400 274.150,131.776 273.376,128.400 275.186 M216.686 275.836 C 217.836 276.219,219.159 277.072,220.000 277.975 C 220.770 278.802,221.983 279.779,222.696 280.147 C 223.409 280.516,224.280 281.255,224.631 281.791 C 224.982 282.327,225.834 283.123,226.524 283.560 C 227.754 284.339,229.796 286.097,233.443 289.519 C 234.450 290.465,235.965 291.695,236.807 292.252 C 237.650 292.810,238.432 293.507,238.545 293.802 C 238.658 294.096,239.842 295.078,241.175 295.983 C 243.973 297.883,244.061 298.127,242.300 299.090 C 240.426 300.114,111.152 300.410,109.189 299.394 C 107.229 298.381,107.675 297.739,116.307 289.135 C 120.868 284.590,124.890 280.540,125.245 280.135 C 126.293 278.941,128.841 276.653,129.960 275.903 C 131.488 274.878,213.615 274.815,216.686 275.836 " stroke="none" fill="#b8265e" fill-rule="evenodd"></path><path id="path3" d="M109.351 117.322 C 107.016 118.487,107.051 118.538,117.293 128.794 C 122.603 134.112,127.750 139.168,128.730 140.031 L 130.513 141.600 172.956 141.594 C 222.540 141.587,216.906 142.260,224.119 135.478 C 225.009 134.641,226.292 133.564,226.969 133.085 C 227.646 132.606,228.863 131.581,229.674 130.807 C 232.156 128.437,235.163 125.852,235.900 125.454 C 236.285 125.246,237.230 124.425,238.000 123.629 C 238.770 122.834,240.435 121.442,241.700 120.538 C 244.260 118.708,244.182 118.412,240.840 117.266 C 238.996 116.634,110.620 116.688,109.351 117.322 M240.695 118.526 C 241.578 119.016,241.569 119.034,240.095 119.792 C 238.120 120.807,237.178 121.618,236.787 122.639 C 236.611 123.100,235.866 123.774,235.133 124.137 C 233.331 125.029,232.400 125.790,232.400 126.373 C 232.400 127.052,231.376 128.000,230.642 128.000 C 229.997 128.000,227.200 130.576,227.200 131.170 C 227.200 131.359,226.739 131.629,226.175 131.771 C 225.611 131.912,224.486 132.753,223.675 133.640 C 222.864 134.526,221.525 135.633,220.700 136.099 C 219.875 136.566,219.200 137.065,219.200 137.209 C 219.200 137.354,218.766 137.670,218.235 137.911 C 217.704 138.153,217.163 138.686,217.033 139.096 C 216.498 140.782,216.037 140.800,172.797 140.800 L 131.452 140.800 130.526 139.930 C 130.017 139.452,129.600 138.857,129.600 138.607 C 129.600 138.358,128.786 137.580,127.791 136.879 C 126.796 136.177,125.824 135.189,125.631 134.682 C 125.438 134.174,124.542 133.271,123.640 132.674 C 122.738 132.077,122.000 131.456,122.000 131.294 C 121.999 130.847,120.291 129.057,119.394 128.562 C 118.957 128.322,118.183 127.512,117.674 126.762 C 117.164 126.013,116.265 125.130,115.676 124.800 C 114.594 124.194,113.733 123.243,113.000 121.843 C 112.780 121.422,112.242 120.881,111.805 120.639 C 109.039 119.112,108.910 118.732,111.000 118.270 C 113.151 117.794,239.828 118.044,240.695 118.526 M280.666 135.773 C 280.545 136.088,279.400 137.012,278.123 137.825 C 276.845 138.638,275.737 139.470,275.659 139.674 C 275.398 140.362,273.568 142.000,273.061 142.000 C 272.784 142.000,271.662 142.855,270.567 143.900 C 269.472 144.945,268.157 146.070,267.644 146.400 C 267.131 146.730,266.210 147.450,265.596 148.000 C 263.725 149.677,262.902 150.317,261.990 150.805 C 261.510 151.062,260.550 151.821,259.858 152.491 C 259.166 153.160,257.762 154.229,256.739 154.865 C 255.715 155.501,254.777 156.284,254.653 156.605 C 254.530 156.927,253.520 157.749,252.408 158.433 C 251.297 159.117,250.202 160.022,249.976 160.444 C 249.750 160.866,248.808 161.680,247.883 162.253 C 246.957 162.825,245.255 164.263,244.100 165.447 L 242.000 167.601 242.000 208.027 C 242.000 236.963,242.127 248.701,242.446 249.326 C 242.932 250.279,247.203 254.383,247.719 254.394 C 247.895 254.397,248.938 255.300,250.038 256.400 C 251.138 257.500,252.207 258.400,252.414 258.400 C 252.620 258.400,253.694 259.300,254.800 260.400 C 255.906 261.500,257.009 262.400,257.252 262.400 C 257.495 262.400,258.406 263.112,259.277 263.982 C 260.147 264.853,261.206 265.675,261.629 265.809 C 262.053 265.944,262.400 266.222,262.400 266.427 C 262.400 266.632,262.651 266.800,262.957 266.800 C 263.263 266.800,264.388 267.575,265.457 268.522 C 266.526 269.470,268.017 270.675,268.772 271.201 C 269.526 271.727,270.762 272.842,271.518 273.678 C 272.275 274.515,273.129 275.200,273.417 275.200 C 273.706 275.200,274.450 275.812,275.071 276.560 C 275.692 277.308,276.920 278.334,277.800 278.840 C 278.680 279.345,279.812 280.190,280.315 280.717 C 281.769 282.238,283.579 280.073,284.760 275.400 C 284.982 274.520,285.447 272.720,285.793 271.400 C 286.656 268.109,287.598 261.897,287.608 259.435 C 287.616 257.245,288.593 248.944,289.189 246.000 C 291.159 236.259,291.610 229.158,291.588 208.200 C 291.570 191.332,291.026 180.101,289.968 174.800 C 289.727 173.590,289.363 171.790,289.158 170.800 C 288.616 168.171,288.043 163.289,287.608 157.600 C 287.070 150.566,286.718 148.600,284.656 141.140 C 283.493 136.933,281.335 134.030,280.666 135.773 M76.033 136.700 C 75.580 137.305,75.044 137.999,74.842 138.243 C 73.525 139.833,71.406 148.324,71.010 153.600 C 70.597 159.101,70.013 164.164,69.372 167.800 C 68.129 174.855,68.004 175.873,67.619 182.000 C 66.856 194.132,66.666 212.327,67.165 225.400 C 67.603 236.891,67.999 241.341,69.159 247.800 C 69.932 252.109,70.376 255.619,70.801 260.800 C 71.371 267.756,72.102 271.983,73.188 274.600 C 73.370 275.040,73.746 276.030,74.024 276.800 C 74.707 278.696,76.303 280.800,77.059 280.800 C 77.688 280.800,105.126 253.493,107.111 250.891 L 108.200 249.463 108.308 209.302 C 108.379 182.553,108.277 168.628,108.001 167.604 C 107.655 166.318,77.900 135.600,77.001 135.600 C 76.922 135.600,76.487 136.095,76.033 136.700 M282.947 142.981 C 283.324 145.349,284.007 147.824,284.639 149.115 C 285.863 151.618,286.223 154.261,286.581 163.400 C 286.927 172.217,287.765 179.008,289.124 184.000 C 290.803 190.166,290.804 226.647,289.125 232.800 C 287.747 237.854,286.989 244.366,286.385 256.361 C 285.961 264.776,285.931 264.970,284.642 267.761 C 283.763 269.662,283.169 271.776,282.845 274.161 C 282.295 278.193,281.644 279.587,280.734 278.677 C 280.424 278.367,279.502 277.872,278.685 277.576 C 277.868 277.281,277.200 276.824,277.200 276.561 C 277.200 275.843,274.483 273.600,273.613 273.600 C 273.196 273.600,272.738 273.234,272.596 272.787 C 272.213 271.580,270.614 270.133,269.117 269.639 C 268.293 269.367,267.609 268.779,267.297 268.075 C 267.023 267.455,266.167 266.646,265.395 266.278 C 264.623 265.910,263.229 264.920,262.296 264.077 C 260.005 262.008,258.211 260.800,257.428 260.800 C 257.072 260.800,256.625 260.395,256.436 259.900 C 255.981 258.710,254.931 257.816,253.100 257.060 C 252.275 256.720,251.600 256.265,251.600 256.051 C 251.600 255.206,249.549 253.290,248.398 253.060 C 247.729 252.926,247.069 252.498,246.931 252.108 C 246.575 251.100,245.153 249.600,244.553 249.600 C 242.774 249.600,242.800 250.202,242.800 208.386 C 242.800 164.818,242.630 167.816,245.148 167.017 C 245.574 166.881,246.204 166.178,246.548 165.454 C 246.995 164.510,247.617 163.990,248.740 163.620 C 249.866 163.248,250.546 162.678,251.155 161.594 C 251.642 160.727,252.414 159.983,252.971 159.843 C 254.122 159.554,256.393 157.723,256.416 157.064 C 256.425 156.809,257.280 156.203,258.316 155.718 C 259.352 155.233,261.169 153.939,262.354 152.844 C 263.538 151.749,264.989 150.653,265.577 150.409 C 266.166 150.166,266.971 149.419,267.365 148.751 C 267.780 148.049,268.797 147.230,269.775 146.811 C 270.891 146.332,271.630 145.694,271.944 144.936 C 272.268 144.152,273.054 143.495,274.410 142.873 C 275.648 142.305,276.624 141.527,276.993 140.813 C 277.352 140.119,278.128 139.488,278.961 139.213 C 279.717 138.963,280.556 138.494,280.824 138.171 C 281.635 137.194,282.243 138.575,282.947 142.981 M78.412 139.246 C 79.808 141.254,80.488 142.001,80.929 142.009 C 81.188 142.013,81.940 142.664,82.600 143.454 C 83.260 144.243,84.031 145.095,84.312 145.345 C 84.851 145.823,87.516 148.470,88.200 149.206 C 88.420 149.443,89.242 150.213,90.026 150.918 C 90.811 151.623,91.566 152.505,91.705 152.877 C 91.844 153.249,92.462 153.872,93.079 154.262 C 93.695 154.651,94.560 155.418,95.000 155.965 C 95.815 156.979,96.603 157.775,98.650 159.656 C 99.283 160.237,100.185 161.137,100.656 161.656 C 101.127 162.175,102.252 163.293,103.156 164.141 C 104.060 164.988,104.800 165.831,104.800 166.014 C 104.800 166.197,105.133 166.452,105.539 166.581 C 107.195 167.106,107.200 167.236,107.200 208.771 L 107.200 248.704 105.600 250.106 C 104.720 250.878,104.000 251.653,104.000 251.829 C 104.000 252.319,102.317 254.000,101.825 254.000 C 101.586 254.000,101.032 254.495,100.595 255.100 C 100.158 255.705,99.318 256.650,98.729 257.200 C 96.311 259.458,95.758 260.029,94.870 261.187 C 94.358 261.854,93.723 262.400,93.458 262.400 C 93.193 262.400,92.712 262.800,92.388 263.290 C 92.065 263.779,91.195 264.749,90.454 265.444 C 88.574 267.211,87.562 268.217,86.376 269.496 C 85.812 270.103,84.867 270.958,84.276 271.395 C 83.684 271.832,83.200 272.409,83.200 272.678 C 83.200 272.946,82.546 273.669,81.747 274.283 C 80.947 274.897,80.002 275.739,79.647 276.154 C 79.291 276.568,78.597 277.378,78.104 277.954 L 77.209 279.000 76.457 278.039 C 75.994 277.448,75.615 276.124,75.473 274.604 C 75.230 271.999,74.631 270.270,73.562 269.088 C 72.720 268.156,72.002 262.920,71.988 257.600 C 71.977 253.775,71.148 244.347,70.563 241.400 C 70.432 240.740,69.962 238.400,69.520 236.200 C 67.934 228.321,67.847 188.092,69.402 181.400 C 70.909 174.910,71.953 165.894,72.019 158.800 C 72.073 152.831,72.722 149.067,74.087 146.789 C 74.789 145.617,75.259 144.134,75.417 142.589 C 75.822 138.641,77.043 137.278,78.412 139.246 M129.960 275.903 C 128.841 276.653,126.293 278.941,125.245 280.135 C 124.890 280.540,120.868 284.590,116.307 289.135 C 107.675 297.739,107.229 298.381,109.189 299.394 C 111.152 300.410,240.426 300.114,242.300 299.090 C 244.061 298.127,243.973 297.883,241.175 295.983 C 239.842 295.078,238.658 294.096,238.545 293.802 C 238.432 293.507,237.650 292.810,236.807 292.252 C 235.965 291.695,234.450 290.465,233.443 289.519 C 229.796 286.097,227.754 284.339,226.524 283.560 C 225.834 283.123,224.982 282.327,224.631 281.791 C 224.280 281.255,223.409 280.516,222.696 280.147 C 221.983 279.779,220.770 278.802,220.000 277.975 C 217.283 275.058,219.685 275.200,172.886 275.203 C 133.722 275.205,130.932 275.251,129.960 275.903 M217.335 278.200 C 218.384 279.191,219.794 280.287,220.470 280.636 C 221.145 280.985,222.351 281.977,223.149 282.839 C 223.947 283.701,225.217 284.720,225.970 285.103 C 226.724 285.487,227.534 286.152,227.770 286.583 C 228.415 287.757,228.858 288.134,230.468 288.878 C 231.275 289.251,232.175 290.043,232.468 290.637 C 232.760 291.232,233.818 292.157,234.818 292.693 C 235.872 293.259,236.845 294.143,237.135 294.799 C 237.449 295.508,238.311 296.246,239.452 296.782 C 243.894 298.871,245.893 298.811,175.050 298.701 C 105.460 298.593,107.644 298.658,111.000 296.801 C 111.660 296.436,112.650 295.478,113.200 294.672 C 113.750 293.866,114.884 292.742,115.721 292.175 C 116.557 291.607,117.409 290.701,117.615 290.162 C 117.820 289.622,118.601 288.819,119.350 288.377 C 120.099 287.935,121.189 286.852,121.772 285.971 C 122.355 285.089,123.257 284.206,123.777 284.009 C 124.296 283.811,125.126 282.929,125.621 282.048 C 126.128 281.145,127.033 280.235,127.695 279.961 C 128.341 279.693,129.306 278.783,129.840 277.937 L 130.810 276.400 173.120 276.400 L 215.429 276.400 217.335 278.200 " stroke="none" fill="#a41c54" fill-rule="evenodd"></path><path id="path4" d="M268.244 73.800 C 268.573 75.271,268.802 75.590,268.794 74.567 C 268.791 74.145,268.605 73.530,268.382 73.200 C 268.085 72.762,268.048 72.924,268.244 73.800 M44.096 98.563 C 44.076 98.803,43.932 99.675,43.777 100.500 C 43.580 101.551,43.638 102.000,43.971 102.000 C 44.233 102.000,44.344 101.832,44.217 101.628 C 44.091 101.423,44.182 101.135,44.421 100.987 C 44.659 100.840,44.770 100.499,44.667 100.231 C 44.564 99.962,44.841 99.517,45.282 99.242 C 45.937 98.833,46.034 98.838,45.812 99.270 C 45.663 99.562,45.824 99.451,46.170 99.024 C 46.628 98.459,46.802 98.404,46.806 98.824 C 46.810 99.215,46.907 99.254,47.106 98.946 C 47.268 98.697,47.760 98.397,48.200 98.280 C 48.640 98.163,47.905 98.081,46.567 98.097 C 45.117 98.115,44.118 98.303,44.096 98.563 M341.905 98.283 C 342.402 98.379,343.122 98.375,343.505 98.275 C 343.887 98.175,343.480 98.096,342.600 98.101 C 341.720 98.105,341.407 98.187,341.905 98.283 M356.962 98.295 C 357.258 98.592,357.433 98.628,359.124 98.739 C 359.634 98.773,359.935 98.981,359.797 99.205 C 359.658 99.430,360.104 99.721,360.806 99.861 C 361.498 100.000,361.915 100.223,361.732 100.356 C 361.298 100.675,361.112 101.619,361.500 101.535 C 361.665 101.500,362.307 101.680,362.926 101.935 C 364.450 102.564,364.400 102.601,364.400 100.829 C 364.400 98.438,363.704 98.000,359.905 98.000 C 358.124 98.000,356.799 98.133,356.962 98.295 M39.999 102.335 C 39.998 102.481,39.380 102.613,38.625 102.629 C 37.117 102.661,36.000 103.369,36.000 104.293 C 36.000 104.705,36.249 104.597,36.806 103.944 L 37.612 103.000 36.917 104.268 C 36.534 104.966,36.082 105.451,35.911 105.345 C 35.740 105.239,35.621 105.838,35.646 106.676 C 35.672 107.514,35.780 107.859,35.887 107.442 C 36.043 106.833,36.150 106.794,36.434 107.242 C 36.715 107.684,36.789 107.650,36.794 107.076 C 36.797 106.678,36.953 106.447,37.140 106.563 C 37.327 106.678,37.717 106.329,38.007 105.786 C 38.298 105.244,38.713 104.800,38.930 104.800 C 39.147 104.800,38.981 105.205,38.562 105.700 L 37.800 106.600 38.684 105.852 C 39.170 105.441,39.547 104.991,39.521 104.852 C 39.415 104.292,40.108 103.219,40.442 103.426 C 40.639 103.548,40.800 103.457,40.800 103.224 C 40.800 102.991,41.280 102.800,41.867 102.800 C 42.453 102.800,42.858 102.727,42.767 102.638 C 42.457 102.336,40.000 102.067,39.999 102.335 M366.169 102.450 C 366.050 102.642,366.143 102.822,366.376 102.850 C 366.609 102.878,366.980 102.945,367.200 103.000 C 367.420 103.055,367.831 103.123,368.113 103.150 C 368.557 103.193,368.776 103.950,368.902 105.878 C 368.919 106.141,369.038 106.344,369.167 106.330 C 370.900 106.144,372.062 106.497,372.359 107.300 C 372.542 107.795,372.850 108.200,373.043 108.200 C 373.236 108.200,373.335 108.460,373.262 108.778 C 373.161 109.217,373.259 109.251,373.664 108.919 C 374.060 108.595,374.335 108.627,374.716 109.040 C 374.999 109.348,375.110 109.600,374.962 109.600 C 374.813 109.600,375.164 109.971,375.741 110.425 C 376.318 110.879,376.946 111.824,377.137 112.525 C 377.328 113.226,377.704 113.751,377.972 113.690 C 378.240 113.630,378.375 113.720,378.272 113.890 C 378.087 114.196,379.268 115.522,379.500 115.270 C 379.876 114.862,380.511 115.603,380.821 116.811 C 381.099 117.890,381.150 117.512,381.050 115.114 C 380.904 111.585,380.452 110.800,378.569 110.800 C 377.338 110.800,377.218 110.685,376.997 109.300 C 376.575 106.663,376.466 106.578,373.300 106.439 C 372.596 106.409,372.399 106.160,372.394 105.300 C 372.384 103.534,370.431 101.995,368.931 102.571 C 368.639 102.683,368.400 102.623,368.400 102.437 C 368.400 101.990,366.446 102.001,366.169 102.450 M35.600 110.343 C 35.600 110.532,34.870 110.645,33.977 110.595 C 31.827 110.474,31.225 111.127,31.379 113.417 C 31.499 115.222,31.954 116.341,32.050 115.067 C 32.205 113.001,32.802 112.086,34.415 111.441 C 35.713 110.921,36.599 110.000,35.800 110.000 C 35.690 110.000,35.600 110.154,35.600 110.343 M106.107 115.160 C 103.699 115.501,102.799 116.411,102.805 118.496 C 102.815 121.366,103.100 121.868,105.027 122.408 C 106.560 122.837,106.814 123.068,107.033 124.235 C 107.327 125.801,107.752 126.212,109.454 126.576 C 110.518 126.803,110.783 127.110,111.202 128.608 C 111.657 130.233,111.825 130.398,113.334 130.696 C 114.759 130.978,115.005 131.186,115.235 132.307 C 115.592 134.057,116.182 134.670,117.799 134.973 C 118.970 135.193,119.207 135.430,119.427 136.601 C 119.730 138.221,120.344 138.809,122.102 139.165 C 123.210 139.390,123.419 139.620,123.527 140.736 C 123.824 143.800,120.256 143.597,173.700 143.599 C 226.979 143.600,222.800 143.838,222.800 140.800 C 222.800 139.795,222.958 139.600,223.774 139.600 C 225.239 139.600,226.788 138.900,227.080 138.106 C 227.427 137.165,229.108 135.600,229.772 135.600 C 230.063 135.600,230.526 135.330,230.800 135.000 C 231.074 134.670,231.538 134.400,231.831 134.400 C 232.543 134.400,234.400 132.512,234.400 131.788 C 234.400 131.436,235.122 131.030,236.249 130.746 C 237.879 130.336,238.188 130.076,238.861 128.556 C 239.497 127.118,239.856 126.788,241.026 126.569 C 242.427 126.306,243.600 124.871,243.600 123.420 C 243.600 123.021,243.966 122.800,244.626 122.800 C 248.638 122.800,249.151 115.731,245.183 115.130 C 242.988 114.797,108.463 114.826,106.107 115.160 M243.081 116.476 C 246.758 118.042,246.752 119.039,243.054 121.570 C 241.983 122.303,240.286 123.689,239.282 124.651 C 238.278 125.613,237.246 126.400,236.988 126.400 C 236.731 126.400,235.743 127.284,234.793 128.363 C 233.843 129.443,232.601 130.424,232.033 130.542 C 231.431 130.668,230.712 131.273,230.312 131.991 C 229.933 132.669,229.065 133.533,228.382 133.912 C 226.850 134.761,225.931 135.577,225.372 136.581 C 225.137 137.004,224.274 137.698,223.456 138.123 C 222.638 138.547,221.511 139.495,220.951 140.229 C 218.926 142.884,220.478 142.800,173.432 142.800 C 125.773 142.800,129.070 143.021,125.860 139.616 C 124.727 138.415,123.196 136.885,122.458 136.216 C 121.720 135.547,120.779 134.640,120.367 134.200 C 119.360 133.126,117.071 130.807,115.928 129.705 C 111.841 125.762,105.600 119.220,105.600 118.879 C 105.600 118.647,106.271 117.905,107.091 117.229 L 108.582 116.000 175.272 116.000 C 225.964 116.000,242.231 116.114,243.081 116.476 M382.094 119.108 C 381.596 119.190,381.281 119.407,381.394 119.591 C 381.508 119.775,381.923 119.841,382.316 119.738 C 382.977 119.565,384.329 120.603,384.354 121.303 C 384.462 124.282,385.422 125.171,385.548 122.410 C 385.694 119.215,385.070 118.619,382.094 119.108 M28.042 123.749 C 27.791 124.051,27.710 124.621,27.861 125.015 C 28.039 125.478,27.984 125.637,27.705 125.465 C 27.409 125.282,27.261 126.472,27.232 129.270 C 27.192 133.191,27.632 134.611,27.801 131.107 C 27.914 128.768,27.933 128.713,28.500 129.053 C 28.875 129.278,28.870 129.193,28.481 128.712 C 27.898 127.993,28.368 127.483,29.707 127.385 C 31.651 127.242,32.201 123.820,30.340 123.448 C 28.652 123.110,28.563 123.122,28.042 123.749 M385.422 128.500 C 385.519 128.995,385.636 129.883,385.682 130.472 C 385.728 131.062,385.908 131.457,386.082 131.349 C 386.256 131.242,386.799 131.434,387.288 131.777 C 387.778 132.120,388.003 132.403,387.789 132.406 C 387.575 132.409,387.596 132.544,387.834 132.706 C 388.384 133.078,389.257 135.584,388.989 136.018 C 388.878 136.198,388.970 136.458,389.193 136.596 C 389.742 136.935,389.724 133.018,389.166 130.416 C 388.708 128.281,388.003 127.600,386.249 127.600 C 385.423 127.600,385.277 127.759,385.422 128.500 M73.600 132.075 C 69.571 133.771,69.486 134.019,69.289 144.700 C 69.153 152.038,69.047 153.200,68.512 153.200 C 67.426 153.200,66.105 155.225,65.544 157.750 C 64.731 161.413,64.741 255.976,65.556 259.200 C 66.183 261.682,67.259 263.438,68.371 263.791 C 69.067 264.012,69.132 264.641,69.271 272.514 C 69.475 284.032,70.032 284.971,76.666 284.990 C 80.408 285.001,80.471 284.967,80.774 282.693 C 80.966 281.256,81.151 280.983,82.000 280.888 C 84.510 280.607,84.745 280.442,85.087 278.713 C 85.378 277.238,85.579 276.996,86.707 276.765 C 88.540 276.391,89.200 275.699,89.200 274.151 C 89.200 272.912,89.301 272.800,90.418 272.800 C 92.034 272.800,93.600 271.234,93.600 269.618 C 93.600 268.472,93.691 268.400,95.136 268.400 C 96.799 268.400,97.600 267.419,97.600 265.381 C 97.600 264.632,97.813 264.399,98.500 264.395 C 100.848 264.380,102.000 263.257,102.000 260.981 C 102.000 260.133,102.184 260.000,103.351 260.000 C 104.898 260.000,105.591 259.340,105.965 257.511 C 106.180 256.458,106.466 256.178,107.558 255.955 C 110.427 255.368,110.200 259.461,110.200 208.400 C 110.200 157.333,110.428 161.432,107.554 160.844 C 106.376 160.603,106.181 160.376,105.890 158.905 C 105.582 157.349,105.451 157.218,103.895 156.910 C 102.439 156.622,102.196 156.418,101.965 155.293 C 101.594 153.475,100.955 152.863,99.285 152.722 C 97.940 152.609,97.807 152.480,97.507 151.000 C 97.134 149.160,96.321 148.400,94.724 148.400 C 93.762 148.400,93.600 148.240,93.600 147.289 C 93.600 145.680,92.562 144.400,91.257 144.400 C 89.864 144.400,89.200 143.736,89.200 142.343 C 89.200 141.038,87.920 140.000,86.311 140.000 C 85.363 140.000,85.200 139.837,85.200 138.889 C 85.200 137.157,84.204 136.065,82.494 135.924 C 81.107 135.809,80.991 135.700,80.869 134.400 C 80.622 131.764,77.052 130.622,73.600 132.075 M278.029 132.654 C 277.573 133.234,277.200 134.134,277.200 134.654 C 277.200 135.406,276.987 135.600,276.160 135.600 C 274.178 135.600,270.400 138.023,270.400 139.295 C 270.400 139.665,269.717 140.087,268.620 140.394 C 266.672 140.940,265.875 141.624,265.238 143.301 C 264.916 144.147,264.556 144.400,263.672 144.400 C 262.358 144.400,261.385 145.307,260.987 146.903 C 260.798 147.661,260.381 148.080,259.656 148.241 C 259.075 148.369,258.312 148.551,257.961 148.645 C 257.254 148.833,256.400 150.432,256.400 151.566 C 256.400 152.108,256.008 152.347,254.866 152.500 C 253.026 152.747,249.983 154.579,249.715 155.602 C 249.610 156.005,248.956 156.547,248.262 156.808 C 245.729 157.757,245.194 158.159,244.721 159.467 C 244.425 160.287,243.970 160.800,243.538 160.800 C 242.321 160.800,240.904 161.653,240.444 162.663 C 240.127 163.359,240.000 176.402,240.000 208.232 C 240.000 257.774,239.865 255.260,242.559 255.766 C 243.695 255.979,244.165 256.352,244.765 257.518 C 245.474 258.897,246.384 259.515,248.700 260.191 C 249.195 260.336,249.600 260.680,249.600 260.957 C 249.600 261.559,251.271 263.200,251.883 263.200 C 252.120 263.200,252.418 263.470,252.545 263.800 C 252.702 264.211,253.345 264.400,254.587 264.400 C 256.302 264.400,256.400 264.460,256.400 265.511 C 256.400 267.104,257.439 268.399,258.723 268.406 C 260.203 268.415,260.606 268.760,261.177 270.511 C 261.605 271.824,261.900 272.083,263.439 272.495 C 264.887 272.882,265.295 273.205,265.678 274.266 C 265.990 275.129,266.559 275.718,267.374 276.022 C 269.675 276.883,270.333 277.299,270.520 278.015 C 270.783 279.023,273.839 280.855,275.666 281.100 C 276.808 281.253,277.200 281.492,277.200 282.034 C 277.200 283.400,278.127 284.817,279.169 285.043 C 279.736 285.166,280.427 285.337,280.704 285.422 C 281.486 285.664,285.384 284.832,285.533 284.392 C 285.607 284.176,285.890 284.000,286.164 284.000 C 286.837 284.000,288.400 282.291,288.400 281.554 C 288.400 281.227,288.574 280.786,288.787 280.573 C 288.999 280.361,289.298 275.731,289.450 270.285 C 289.721 260.603,289.746 260.379,290.585 260.168 C 293.485 259.440,293.601 257.429,293.591 208.271 C 293.582 159.421,293.475 157.449,290.801 156.600 C 289.729 156.260,289.684 155.921,289.395 145.868 C 289.095 135.433,288.796 134.337,285.788 132.655 C 283.057 131.129,279.229 131.128,278.029 132.654 M282.806 134.004 C 285.534 135.947,288.400 144.810,288.400 151.308 C 288.400 154.348,289.525 163.757,290.049 165.102 C 291.235 168.142,291.632 171.115,292.228 181.400 C 293.273 199.448,292.621 243.046,291.234 247.800 C 289.585 253.455,289.223 255.149,288.839 259.018 C 288.598 261.449,288.400 264.398,288.400 265.572 C 288.400 272.327,285.460 281.215,282.608 283.085 L 281.273 283.959 280.300 283.058 C 279.765 282.562,279.163 281.883,278.963 281.550 C 278.764 281.216,277.806 280.506,276.836 279.972 C 275.866 279.437,274.876 278.648,274.636 278.217 C 273.959 277.001,273.518 276.625,271.860 275.847 C 271.012 275.449,270.022 274.605,269.660 273.970 C 269.297 273.336,268.460 272.595,267.800 272.323 C 267.140 272.052,265.790 271.094,264.800 270.194 C 263.810 269.295,262.001 267.967,260.779 267.243 C 259.558 266.519,258.388 265.555,258.179 265.101 C 257.971 264.646,256.971 263.831,255.958 263.290 C 254.945 262.748,253.800 261.769,253.412 261.113 C 253.025 260.457,252.144 259.672,251.454 259.367 C 249.845 258.656,249.017 257.977,248.686 257.097 C 248.541 256.710,247.922 256.170,247.311 255.898 C 246.700 255.626,245.660 254.921,245.000 254.332 C 244.340 253.743,243.414 252.928,242.943 252.521 C 240.725 250.605,240.800 252.156,240.800 208.384 C 240.800 169.983,240.835 167.984,241.543 166.333 C 242.328 164.500,244.535 162.353,246.676 161.337 C 247.382 161.002,248.419 160.126,248.981 159.389 C 249.542 158.653,250.586 157.837,251.301 157.576 C 252.015 157.314,252.961 156.538,253.403 155.850 C 253.844 155.163,255.060 154.150,256.105 153.600 C 257.150 153.050,258.107 152.283,258.231 151.896 C 258.355 151.508,259.509 150.477,260.796 149.603 C 262.082 148.729,263.734 147.452,264.467 146.764 C 265.200 146.077,266.491 145.195,267.335 144.806 C 268.179 144.416,269.185 143.580,269.570 142.948 C 269.955 142.317,270.794 141.554,271.435 141.254 C 272.076 140.953,272.858 140.581,273.173 140.427 C 273.489 140.273,273.939 139.801,274.173 139.379 C 274.791 138.268,275.984 137.245,277.501 136.525 C 278.231 136.179,279.031 135.514,279.279 135.048 C 280.288 133.154,281.223 132.877,282.806 134.004 M79.390 135.413 C 80.207 136.411,81.956 138.256,83.277 139.513 C 84.598 140.771,87.056 143.181,88.739 144.868 C 90.423 146.555,94.103 150.245,96.918 153.068 C 99.733 155.891,103.423 159.548,105.118 161.195 C 106.813 162.842,108.425 164.707,108.700 165.341 C 109.434 167.030,109.416 249.170,108.681 251.200 C 108.126 252.734,77.932 283.200,76.967 283.200 C 76.334 283.200,75.033 281.967,73.378 279.800 C 70.984 276.664,70.732 275.364,69.358 259.018 C 69.211 257.268,68.818 255.198,68.485 254.418 C 66.407 249.554,66.010 242.176,66.005 208.316 C 65.999 173.689,66.394 167.113,68.821 161.400 C 69.007 160.960,69.442 157.180,69.786 153.000 C 70.640 142.639,71.264 139.584,72.885 137.825 C 73.278 137.398,73.600 136.876,73.600 136.665 C 73.600 135.977,76.339 133.600,77.132 133.600 C 77.562 133.600,78.561 134.402,79.390 135.413 M389.331 140.600 C 389.333 142.140,389.405 142.721,389.492 141.891 C 389.579 141.061,389.577 139.801,389.489 139.091 C 389.400 138.381,389.329 139.060,389.331 140.600 M25.687 145.424 C 24.954 145.937,23.556 147.996,23.393 148.800 C 22.708 152.191,22.802 155.600,23.580 155.600 C 23.750 155.600,23.809 155.180,23.711 154.668 C 23.613 154.155,23.801 153.094,24.128 152.310 C 24.522 151.367,24.590 150.750,24.327 150.487 C 24.065 150.225,24.098 149.986,24.427 149.783 C 24.747 149.585,24.822 149.641,24.638 149.938 C 24.225 150.607,25.037 150.505,25.743 149.800 C 26.073 149.470,26.536 149.200,26.771 149.200 C 27.024 149.200,27.200 148.298,27.200 147.000 C 27.200 144.627,27.049 144.470,25.687 145.424 M389.602 153.724 C 389.601 154.480,389.753 154.753,390.068 154.558 C 390.384 154.363,390.452 154.488,390.277 154.944 C 390.060 155.509,390.145 155.551,390.800 155.200 C 391.455 154.849,391.540 154.891,391.323 155.456 C 391.129 155.961,391.207 156.048,391.632 155.801 C 391.944 155.620,392.067 155.619,391.903 155.799 C 391.740 155.979,391.807 156.368,392.052 156.663 C 392.297 156.958,392.364 157.200,392.200 157.200 C 392.036 157.200,392.130 157.474,392.408 157.810 C 392.686 158.145,392.805 158.529,392.671 158.662 C 392.537 158.796,392.608 159.242,392.828 159.653 C 393.105 160.171,393.094 160.400,392.790 160.400 C 392.540 160.400,392.487 160.614,392.665 160.900 C 392.837 161.175,393.014 161.641,393.059 161.937 C 393.334 163.758,393.534 162.265,393.526 158.434 C 393.521 155.995,393.362 154.000,393.171 154.000 C 392.981 154.000,392.941 153.699,393.082 153.331 C 393.279 152.818,393.178 152.723,392.649 152.926 C 392.267 153.073,392.060 153.027,392.186 152.823 C 392.310 152.621,391.781 152.488,391.008 152.528 C 389.753 152.592,389.603 152.720,389.602 153.724 M22.847 160.220 L 22.895 162.600 23.296 160.669 C 23.584 159.288,23.570 158.610,23.249 158.289 C 22.917 157.957,22.812 158.460,22.847 160.220 M22.979 208.400 C 22.979 215.770,23.033 218.785,23.099 215.100 C 23.165 211.415,23.165 205.385,23.099 201.700 C 23.033 198.015,22.979 201.030,22.979 208.400 M393.149 253.900 C 393.060 256.561,393.005 256.992,392.699 257.464 C 392.533 257.719,392.507 258.214,392.641 258.564 C 392.797 258.969,392.670 259.200,392.292 259.200 C 391.965 259.200,391.451 259.515,391.149 259.900 C 390.658 260.526,390.670 260.545,391.264 260.081 C 391.711 259.731,392.014 259.698,392.188 259.981 C 392.331 260.211,392.246 260.400,392.000 260.400 C 391.754 260.400,391.681 260.608,391.838 260.862 C 391.995 261.116,391.952 261.218,391.743 261.088 C 391.296 260.812,390.828 261.105,390.000 262.177 C 389.467 262.867,389.467 262.916,390.000 262.618 C 390.488 262.345,390.507 262.383,390.100 262.821 C 388.691 264.339,391.259 265.141,392.751 263.649 C 393.452 262.948,394.046 252.400,393.385 252.400 C 393.283 252.400,393.177 253.075,393.149 253.900 M22.848 256.380 C 22.812 258.025,22.913 258.447,23.261 258.099 C 23.597 257.763,23.610 257.172,23.309 255.919 L 22.896 254.200 22.848 256.380 M22.979 262.600 C 22.829 263.599,22.897 265.167,23.130 266.084 C 23.363 267.001,23.490 267.854,23.412 267.980 C 23.135 268.428,25.416 271.323,26.300 271.646 C 27.402 272.048,27.624 268.794,26.587 267.424 C 26.258 266.988,26.000 266.869,26.000 267.152 C 26.000 267.789,24.814 266.649,24.154 265.377 C 23.803 264.700,23.800 264.350,24.143 263.978 C 24.488 263.604,24.481 263.549,24.116 263.755 C 23.768 263.951,23.664 263.622,23.745 262.593 C 23.911 260.480,23.296 260.486,22.979 262.600 M389.342 275.400 C 389.341 277.380,389.408 278.240,389.492 277.312 C 389.576 276.384,389.577 274.764,389.495 273.712 C 389.412 272.660,389.343 273.420,389.342 275.400 M126.492 273.572 C 124.450 273.911,124.001 274.303,123.642 276.054 C 123.422 277.130,123.107 277.460,121.985 277.791 C 119.998 278.378,119.720 278.633,119.439 280.134 C 119.227 281.262,118.942 281.551,117.664 281.934 C 116.173 282.380,115.377 283.337,115.116 284.995 C 115.047 285.433,114.633 285.847,114.195 285.916 C 112.553 286.175,111.580 286.974,111.146 288.422 C 110.780 289.645,110.438 289.982,109.182 290.358 C 107.896 290.743,107.575 291.074,107.098 292.507 C 106.661 293.820,106.296 294.245,105.474 294.400 C 103.124 294.844,102.190 297.085,103.038 300.246 C 103.514 302.018,102.767 302.000,176.146 302.000 C 243.755 302.000,246.024 301.976,246.745 301.255 C 248.798 299.202,247.916 294.730,245.393 294.400 C 244.006 294.219,243.809 294.040,243.294 292.489 C 242.788 290.964,242.537 290.727,240.998 290.315 C 239.605 289.942,239.229 289.644,239.055 288.775 C 238.768 287.340,237.878 286.510,236.082 286.003 C 235.123 285.732,234.318 285.138,233.800 284.319 C 232.954 282.980,231.067 281.678,229.903 281.629 C 228.946 281.589,227.312 280.102,227.042 279.025 C 226.795 278.042,225.291 277.200,223.781 277.200 C 222.981 277.200,222.798 276.998,222.787 276.100 C 222.753 273.155,227.132 273.407,174.883 273.344 C 149.207 273.314,127.431 273.417,126.492 273.572 M218.792 275.043 C 219.676 275.397,220.400 275.823,220.400 275.989 C 220.400 276.544,222.520 278.419,223.872 279.061 C 224.613 279.413,225.309 280.097,225.435 280.596 C 225.559 281.092,226.142 281.736,226.730 282.028 C 228.599 282.956,230.400 284.421,230.400 285.014 C 230.400 285.329,231.288 286.037,232.373 286.587 C 233.459 287.137,234.663 288.122,235.050 288.776 C 235.436 289.431,236.268 290.180,236.898 290.441 C 237.528 290.702,238.614 291.520,239.312 292.260 C 240.010 292.999,241.797 294.459,243.284 295.502 C 246.880 298.027,246.609 299.382,242.243 300.694 C 239.687 301.462,110.491 301.421,108.687 300.651 C 104.380 298.813,104.648 298.218,113.601 289.742 C 114.134 289.237,118.292 285.086,118.810 284.542 C 125.582 277.422,127.233 275.811,128.400 275.186 C 130.414 274.106,216.113 273.972,218.792 275.043 M389.160 279.900 C 389.139 280.065,389.077 280.650,389.023 281.200 C 388.862 282.857,388.380 283.989,387.876 283.892 C 387.614 283.841,387.450 284.101,387.511 284.470 C 387.571 284.838,387.409 285.271,387.149 285.432 C 386.824 285.632,386.782 285.548,387.015 285.162 C 387.303 284.683,387.253 284.681,386.677 285.149 C 386.305 285.451,385.982 285.541,385.960 285.349 C 385.938 285.157,385.796 285.448,385.643 285.995 C 385.244 287.428,385.590 289.200,386.269 289.200 C 386.587 289.200,386.746 289.037,386.623 288.837 C 386.500 288.638,386.727 288.560,387.127 288.665 C 388.019 288.898,388.978 287.840,388.649 286.984 C 388.511 286.624,388.577 286.462,388.805 286.603 C 389.022 286.737,389.200 286.466,389.200 286.000 C 389.200 285.534,389.050 285.245,388.867 285.359 C 388.683 285.472,388.533 285.320,388.533 285.021 C 388.533 284.721,388.773 284.568,389.067 284.681 C 389.478 284.839,389.600 284.281,389.600 282.243 C 389.600 280.089,389.327 278.637,389.160 279.900 M27.263 287.501 C 27.269 289.756,27.421 291.511,27.600 291.400 C 27.779 291.289,27.832 291.556,27.718 291.992 C 27.490 292.863,28.822 293.600,30.623 293.600 C 31.486 293.600,31.574 293.456,31.424 292.300 C 31.330 291.585,31.242 290.666,31.227 290.257 C 31.210 289.796,30.991 289.595,30.648 289.726 C 30.344 289.843,29.489 289.400,28.748 288.742 C 28.007 288.084,27.670 287.682,28.000 287.849 C 28.486 288.096,28.510 288.042,28.125 287.566 C 27.864 287.243,27.700 286.528,27.761 285.976 C 27.821 285.424,27.732 284.619,27.561 284.186 C 27.384 283.738,27.256 285.164,27.263 287.501 M384.898 294.600 C 385.003 295.152,384.901 295.600,384.670 295.600 C 384.440 295.600,383.835 295.991,383.326 296.470 C 382.795 296.968,382.400 297.129,382.400 296.846 C 382.400 296.221,381.721 296.627,381.228 297.547 C 380.743 298.454,384.649 298.083,385.229 297.167 C 385.744 296.353,385.686 293.600,385.153 293.600 C 384.893 293.600,384.786 294.016,384.898 294.600 M380.860 299.851 C 380.827 300.539,380.532 301.324,380.204 301.596 C 379.877 301.868,379.731 302.295,379.881 302.545 C 380.034 302.801,379.873 302.773,379.512 302.481 C 379.074 302.125,378.788 302.096,378.608 302.387 C 378.463 302.621,378.132 302.686,377.872 302.530 C 377.611 302.373,377.649 302.553,377.957 302.932 C 378.443 303.532,378.431 303.587,377.857 303.366 C 377.356 303.174,377.200 303.351,377.200 304.112 C 377.200 304.737,376.761 305.459,376.026 306.045 C 375.123 306.764,374.954 307.103,375.293 307.512 C 375.536 307.805,375.570 308.004,375.368 307.953 C 374.700 307.785,372.839 308.900,372.716 309.542 C 372.636 309.955,372.112 310.197,371.197 310.243 C 370.429 310.282,369.666 310.333,369.502 310.357 C 369.338 310.381,368.828 311.200,368.369 312.177 C 367.909 313.154,367.233 314.039,366.867 314.142 C 366.500 314.245,367.179 314.243,368.375 314.138 C 371.216 313.889,371.913 313.473,372.219 311.842 C 372.456 310.579,372.594 310.477,374.419 310.235 C 376.686 309.934,376.751 309.864,376.893 307.536 C 376.993 305.878,377.064 305.780,378.054 305.924 C 380.403 306.265,381.672 303.704,381.095 299.788 L 380.920 298.600 380.860 299.851 M31.370 303.571 C 31.417 305.963,31.486 306.040,33.820 306.303 C 35.486 306.491,35.665 306.434,35.535 305.757 C 35.455 305.340,35.122 305.000,34.795 305.000 C 34.468 305.000,33.899 304.673,33.530 304.274 C 33.162 303.874,32.712 303.553,32.530 303.561 C 32.349 303.568,32.237 303.130,32.281 302.587 C 32.329 302.006,32.150 301.600,31.847 301.600 C 31.491 301.600,31.344 302.210,31.370 303.571 M35.600 309.733 C 35.600 310.760,35.774 311.600,35.987 311.600 C 36.201 311.600,36.260 311.900,36.119 312.266 C 35.949 312.710,36.018 312.836,36.327 312.645 C 36.640 312.452,36.705 312.583,36.526 313.049 C 36.321 313.584,36.416 313.679,36.951 313.474 C 37.331 313.328,37.544 313.367,37.425 313.559 C 37.306 313.752,37.612 314.017,38.104 314.149 C 39.381 314.491,39.488 314.469,39.745 313.800 C 40.024 313.072,39.638 311.929,39.203 312.198 C 38.795 312.450,37.964 311.436,37.830 310.522 C 37.772 310.127,37.399 309.803,37.001 309.802 C 36.604 309.801,36.229 309.469,36.169 309.063 C 35.943 307.535,35.600 307.938,35.600 309.733 M43.602 315.100 C 43.603 315.485,43.792 316.475,44.021 317.300 L 44.438 318.800 47.519 318.726 C 50.075 318.665,50.235 318.627,48.459 318.504 C 47.026 318.404,46.035 318.091,45.459 317.555 C 44.589 316.744,44.539 316.628,44.450 315.200 C 44.389 314.218,43.599 314.125,43.602 315.100 M362.669 315.528 C 362.075 316.148,361.680 316.779,361.791 316.931 C 361.902 317.083,361.790 317.037,361.542 316.829 C 360.947 316.330,359.842 317.415,360.251 318.097 C 360.493 318.499,360.430 318.500,359.940 318.103 C 359.603 317.830,359.194 317.740,359.032 317.903 C 358.870 318.067,357.086 318.314,355.069 318.453 C 352.004 318.665,352.361 318.697,357.243 318.649 C 363.531 318.588,364.400 318.333,364.400 316.551 C 364.400 316.028,364.220 315.600,364.000 315.600 C 363.780 315.600,363.600 315.409,363.600 315.176 C 363.600 314.943,363.780 314.864,364.000 315.000 C 364.220 315.136,364.400 315.057,364.400 314.824 C 364.400 314.105,363.797 314.350,362.669 315.528 M57.905 318.683 C 58.402 318.779,59.122 318.775,59.505 318.675 C 59.887 318.575,59.480 318.496,58.600 318.501 C 57.720 318.505,57.407 318.587,57.905 318.683 M342.307 318.690 C 343.026 318.779,344.106 318.777,344.707 318.686 C 345.308 318.595,344.720 318.522,343.400 318.524 C 342.080 318.526,341.588 318.601,342.307 318.690 " stroke="none" fill="#f43c80" fill-rule="evenodd"></path></g></svg>